<svg width="488" height="81" viewBox="0 0 488 81" fill="none" xmlns="http://www.w3.org/2000/svg">
<g clip-path="url(#clip0_172_3)">
<path d="M-2.63248e-05 74.4124L7.92947 66.7073C10.1758 69.6737 11.6158 70.9643 13.7854 72.7365H25.8812C26.1116 72.0045 26.2844 70.0782 26.2844 68.8069C26.2844 65.9945 25.0748 65.1855 23.0781 65.1855H10.9054C5.8559 65.1855 1.76635 62.5272 1.76635 55.7082L1.76635 53.936L7.69907 47.0977C4.08952 44.5358 2.09275 39.9513 2.09275 34.2495C2.09275 31.2059 2.82234 28.2202 4.64631 24.1172L17.6253 17.7798C19.6221 17.7798 21.3885 18.1843 22.9821 18.897L36.1915 18.897L33.7915 27.0837L29.3948 26.2747C30.1244 28.201 30.5084 30.4547 30.5084 32.8625C30.5084 36.0794 29.702 38.9688 27.9548 42.9948L14.9758 49.3515C13.1326 49.3515 11.539 49.024 10.003 48.3883V51.9134C10.003 53.204 10.2526 53.9168 11.5966 53.9168H20.8893C30.662 53.9168 35.3083 55.6889 35.3083 63.24C35.3083 65.5708 34.5019 70.0782 33.4651 72.2357L11.6734 81.0002C6.62389 81.0002 3.99352 79.6326 -0.0192261 74.4124H-2.63248e-05ZM20.4285 36.0024C20.4285 31.1096 18.7389 27.3149 15.7054 25.3886L12.8254 25.3886C12.4222 27.5653 12.1918 29.4916 12.1918 31.0904C12.1918 36.0794 13.7854 39.7779 16.8382 41.7042H19.7949C20.1981 39.3734 20.4285 37.5241 20.4285 36.0024Z" fill="#95FF00"/>
<path d="M36.2875 50.6996C36.2875 47.1745 37.0939 43.8613 38.2075 41.2994L56.6393 33.2668C56.0825 28.8556 53.7593 25.9469 48.7866 25.9469C45.9066 25.9469 43.0267 27.3916 39.7435 29.4913L38.4571 27.3146L46.3098 17.7603L52.3193 17.7603C62.9752 17.7603 68.5047 23.6161 68.5047 36.2333V61.3905L56.8121 61.795V57.8654L47.1162 62.527C40.1467 62.527 36.3067 58.8285 36.3067 50.7189L36.2875 50.6996ZM55.7369 54.8796C56.4665 50.95 56.7737 47.2516 56.7737 44.5933V40.4133H49.1706C48.3642 42.9752 47.961 46.77 47.961 48.7733C47.961 54.1476 49.401 54.8796 55.7369 54.8796Z" fill="#95FF00"/>
<path d="M84.4981 55.5344V61.3903L72.8054 61.7948L72.8054 2.73508L84.4981 2.33057V22.9032L94.1939 17.7601C104.677 17.7601 111.647 26.2742 111.647 39.2188C111.647 43.4759 110.687 48.2916 108.517 53.7622L92.8116 62.5268C90.738 62.5268 87.4548 59.5603 84.4789 55.5344H84.4981ZM99.9539 44.5931C99.9539 35.6744 97.0739 28.9325 91.6212 25.3881H85.5349C84.8053 29.7222 84.4981 32.8621 84.4981 35.6744C84.4981 44.6702 87.378 51.3351 92.9076 54.8794L98.9171 54.8794C99.6467 50.5453 99.9539 47.001 99.9539 44.5931Z" fill="#95FF00"/>
<path d="M114.776 18.8777L126.392 18.4732V26.5828L133.112 17.7412C137.509 17.7412 140.408 19.7445 142.961 24.9648L134.321 32.9203C133.285 30.917 132.478 29.8575 131.115 28.8173H127.429C126.622 32.6699 126.392 35.3281 126.392 37.4085V61.3521L114.776 61.7567V18.8777Z" fill="#95FF00"/>
<path d="M141.291 6.43377L151.467 0L158.359 8.10963L148.26 14.6205L141.291 6.41451V6.43377ZM143.998 18.8775L155.614 18.473V61.3905L143.998 61.795V18.8775Z" fill="#95FF00"/>
<path d="M158.897 41.0682C158.897 36.5607 159.857 31.9955 161.931 26.5248L180.036 17.7603C188.042 17.7603 193.898 26.0432 193.898 37.2157C193.898 38.9108 193.668 40.9141 193.418 42.7633L171.223 42.7633C172.663 50.3914 176.503 54.3403 180.996 54.3403C183.166 54.3403 185.393 53.1267 189.079 50.7959L190.365 52.9726L182.513 62.527L176.35 62.527C165.867 62.527 158.897 54.0128 158.897 41.0682ZM182.052 34.7886C181.649 29.7224 180.535 27.3916 177.482 25.3883L171.55 25.3883C171.07 28.7593 170.667 31.9762 170.59 34.7886H182.033H182.052Z" fill="#95FF00"/>
<path d="M196.701 2.73508L208.394 2.33057V61.3903L196.701 61.7948V2.73508Z" fill="#95FF00"/>
<path d="M263.497 18.8777V61.7951L275.113 61.3906V18.4731L263.497 18.8777Z" fill="#95FF00"/>
<path d="M252.285 9.22687H250.365C249.251 13.2528 248.118 18.5501 247.408 25.1379L247.235 26.3515H260.541L258.141 34.5382L246.371 34.5382L241.322 79.8635L229.303 80.268L234.352 34.5382H228.093L230.512 26.3515H235.389C236.426 19.9948 237.962 14.7746 240.266 10.3634L259.254 1.59881C259.984 1.59881 260.733 1.6566 261.443 1.79144C264.611 2.35006 267.875 1.94554 270.601 0.211891L270.947 0L277.84 8.10963L267.74 14.6205L266.877 13.5995C266.051 12.6171 264.957 11.9237 263.728 11.5962L257.795 9.97812C255.99 9.49655 254.147 9.24614 252.285 9.24614V9.22687Z" fill="#95FF00"/>
<path d="M277.916 74.4124L285.846 66.7073C288.092 69.6737 289.532 70.9643 291.683 72.7365H303.778C304.009 72.0045 304.182 70.0782 304.182 68.8069C304.182 65.9945 302.972 65.1855 300.975 65.1855H288.803C283.753 65.1855 279.664 62.5272 279.664 55.7082V53.936L285.596 47.0977C281.987 44.5358 279.99 39.9513 279.99 34.2495C279.99 31.2059 280.72 28.2202 282.543 24.1172L295.523 17.7798C297.519 17.7798 299.286 18.1843 300.879 18.897L314.089 18.897L311.689 27.0837L307.292 26.2747C308.022 28.201 308.406 30.4547 308.406 32.8625C308.406 36.0794 307.599 38.9688 305.852 42.9948L292.873 49.3515C291.03 49.3515 289.436 49.024 287.9 48.3883V51.9134C287.9 53.204 288.131 53.9168 289.494 53.9168H298.786C308.559 53.9168 313.205 55.6889 313.205 63.24C313.205 65.5708 312.399 70.0782 311.362 72.2357L289.571 81.0002C284.521 81.0002 281.891 79.6326 277.878 74.4124H277.916ZM298.345 36.0024C298.345 31.1096 296.655 27.3149 293.622 25.3886L290.742 25.3886C290.339 27.5653 290.108 29.4916 290.108 31.0904C290.108 36.0794 291.702 39.7779 294.755 41.7042H297.711C298.114 39.3734 298.345 37.5241 298.345 36.0024Z" fill="#95FF00"/>
<path d="M336.706 54.8798C337.436 50.9502 337.82 47.5599 337.82 44.5935V18.8777L349.435 18.4731V61.3906L337.82 61.7951V57.7692L328.124 62.5079C317.871 62.5079 315.701 53.9937 315.701 41.0491V18.8777L327.394 18.4731V36.3105C327.394 53.9937 327.874 54.8798 336.687 54.8798H336.706Z" fill="#95FF00"/>
<path d="M352.565 41.0682C352.565 36.5607 353.525 31.9955 355.599 26.5248L373.704 17.7603C381.71 17.7603 387.566 26.0432 387.566 37.2157C387.566 38.9108 387.336 40.9141 387.086 42.7633L364.891 42.7633C366.331 50.3914 370.171 54.3403 374.664 54.3403C376.833 54.3403 379.061 53.1267 382.747 50.7959L384.033 52.9726L376.181 62.527L370.018 62.527C359.534 62.527 352.565 54.0128 352.565 41.0682ZM375.72 34.7886C375.317 29.7224 374.203 27.3916 371.15 25.3883L365.218 25.3883C364.738 28.7593 364.334 31.9762 364.258 34.7886H375.701H375.72Z" fill="#95FF00"/>
<path d="M390.369 18.8777L401.985 18.4732V26.5828L408.705 17.7412C413.102 17.7412 416.001 19.7445 418.554 24.9648L409.915 32.9203C408.878 30.917 408.071 29.8575 406.708 28.8173H403.022C402.215 32.6699 401.985 35.3281 401.985 37.4085V61.3521L390.369 61.7567V18.8777Z" fill="#95FF00"/>
<path d="M416.154 41.0682C416.154 36.5607 417.114 31.9955 419.188 26.5248L437.293 17.7603C447.796 17.7603 454.746 26.2744 454.746 39.219C454.746 43.4761 453.786 48.2918 451.616 53.7624L433.588 62.527C423.009 62.527 416.135 54.0128 416.135 41.0682H416.154ZM443.072 44.5933C443.072 35.6746 440.193 28.9327 434.74 25.3883L428.807 25.3883C428.25 29.0868 427.847 32.6119 427.847 35.6746C427.847 44.6704 430.727 51.3353 436.18 54.8796L442.036 54.8796C442.669 50.95 443.072 47.4057 443.072 44.5933Z" fill="#95FF00"/>
<path d="M455.802 50.6996C455.802 47.1745 456.608 43.8613 457.722 41.2994L476.135 33.2668C475.578 28.8556 473.255 25.9469 468.282 25.9469C465.402 25.9469 462.522 27.3916 459.239 29.4913L457.952 27.3146L465.805 17.7603L471.815 17.7603C482.47 17.7603 488 23.6161 488 36.2333V61.3905L476.307 61.795V57.8654L466.611 62.527C459.642 62.527 455.802 58.8285 455.802 50.7189V50.6996ZM475.271 54.8796C476 50.95 476.307 47.2516 476.307 44.5933V40.4133H468.704C467.898 42.9752 467.495 46.77 467.495 48.7733C467.495 54.1476 468.935 54.8796 475.271 54.8796Z" fill="#95FF00"/>
</g>
<defs>
<clipPath id="clip0_172_3">
<rect width="488" height="81" fill="white"/>
</clipPath>
</defs>
</svg>
